<svg xmlns="http://www.w3.org/2000/svg" height="80" width="80" viewBox="0 0 33 33">
  <path fill="#FFFFFF" d="M0,0 h33v33H0z" shape-rendering="crispEdges"></path>
  <path fill="#000000" d="M0 0h7v1H0zM11 0h1v1H11zM13 0h1v1H13zM15 0h1v1H15zM23 0h1v1H23zM26,0 h7v1H26zM0 1h1v1H0zM6 1h1v1H6zM8 1h1v1H8zM10 1h2v1H10zM13 1h2v1H13zM19 1h4v1H19zM26 1h1v1H26zM32,1 h1v1H32zM0 2h1v1H0zM2 2h3v1H2zM6 2h1v1H6zM9 2h1v1H9zM11 2h1v1H11zM13 2h1v1H13zM15 2h1v1H15zM19 2h1v1H19zM21 2h1v1H21zM23 2h1v1H23zM26 2h1v1H26zM28 2h3v1H28zM32,2 h1v1H32zM0 3h1v1H0zM2 3h3v1H2zM6 3h1v1H6zM9 3h3v1H9zM13 3h1v1H13zM16 3h1v1H16zM18 3h1v1H18zM20 3h1v1H20zM22 3h1v1H22zM24 3h1v1H24zM26 3h1v1H26zM28 3h3v1H28zM32,3 h1v1H32zM0 4h1v1H0zM2 4h3v1H2zM6 4h1v1H6zM10 4h6v1H10zM17 4h1v1H17zM19 4h1v1H19zM21 4h4v1H21zM26 4h1v1H26zM28 4h3v1H28zM32,4 h1v1H32zM0 5h1v1H0zM6 5h1v1H6zM8 5h1v1H8zM11 5h4v1H11zM18 5h4v1H18zM26 5h1v1H26zM32,5 h1v1H32zM0 6h7v1H0zM8 6h1v1H8zM10 6h1v1H10zM12 6h1v1H12zM14 6h1v1H14zM16 6h1v1H16zM18 6h1v1H18zM20 6h1v1H20zM22 6h1v1H22zM24 6h1v1H24zM26,6 h7v1H26zM8 7h1v1H8zM15 7h1v1H15zM17 7h2v1H17zM21 7h2v1H21zM4 8h4v1H4zM11 8h2v1H11zM14 8h1v1H14zM20 8h3v1H20zM24 8h1v1H24zM26 8h2v1H26zM31 8h1v1H31zM1 9h2v1H1zM4 9h2v1H4zM8 9h1v1H8zM10 9h1v1H10zM12 9h2v1H12zM15 9h1v1H15zM17 9h4v1H17zM23 9h1v1H23zM27 9h1v1H27zM30 9h2v1H30zM0 10h1v1H0zM2 10h3v1H2zM6 10h4v1H6zM11 10h2v1H11zM16 10h4v1H16zM23 10h3v1H23zM28 10h1v1H28zM31 10h1v1H31zM0 11h3v1H0zM5 11h1v1H5zM17 11h1v1H17zM19 11h1v1H19zM21 11h2v1H21zM24 11h1v1H24zM28 11h1v1H28zM1 12h1v1H1zM3 12h1v1H3zM6 12h1v1H6zM8 12h1v1H8zM11 12h4v1H11zM17 12h2v1H17zM20 12h1v1H20zM22 12h3v1H22zM26 12h1v1H26zM30 12h1v1H30zM32,12 h1v1H32zM1 13h1v1H1zM4 13h1v1H4zM9 13h4v1H9zM14 13h3v1H14zM18 13h4v1H18zM23 13h1v1H23zM27 13h1v1H27zM29 13h2v1H29zM32,13 h1v1H32zM0 14h2v1H0zM3 14h1v1H3zM5 14h5v1H5zM12 14h1v1H12zM14 14h4v1H14zM21 14h1v1H21zM23 14h3v1H23zM27 14h1v1H27zM30 14h2v1H30zM0 15h2v1H0zM3 15h1v1H3zM8 15h2v1H8zM12 15h1v1H12zM19 15h3v1H19zM23 15h1v1H23zM25 15h1v1H25zM28 15h1v1H28zM32,15 h1v1H32zM2 16h2v1H2zM5 16h3v1H5zM10 16h3v1H10zM16 16h2v1H16zM19 16h1v1H19zM21 16h3v1H21zM26 16h3v1H26zM30,16 h3v1H30zM0 17h2v1H0zM4 17h1v1H4zM7 17h4v1H7zM12 17h1v1H12zM14 17h1v1H14zM16 17h4v1H16zM22 17h2v1H22zM26 17h2v1H26zM29 17h2v1H29zM0 18h1v1H0zM2 18h1v1H2zM4 18h1v1H4zM6 18h3v1H6zM10 18h1v1H10zM12 18h1v1H12zM14 18h2v1H14zM17 18h2v1H17zM23 18h1v1H23zM26 18h2v1H26zM29 18h1v1H29zM31 18h1v1H31zM0 19h1v1H0zM2 19h1v1H2zM4 19h1v1H4zM8 19h2v1H8zM13 19h2v1H13zM17 19h1v1H17zM20 19h2v1H20zM24 19h1v1H24zM28 19h1v1H28zM31,19 h2v1H31zM0 20h1v1H0zM4 20h4v1H4zM11 20h4v1H11zM16 20h6v1H16zM23 20h2v1H23zM26 20h3v1H26zM30 20h1v1H30zM32,20 h1v1H32zM0 21h1v1H0zM2 21h4v1H2zM7 21h4v1H7zM12 21h1v1H12zM15 21h3v1H15zM19 21h5v1H19zM25 21h3v1H25zM29 21h2v1H29zM32,21 h1v1H32zM2 22h1v1H2zM6 22h1v1H6zM9 22h1v1H9zM11 22h1v1H11zM13 22h3v1H13zM19 22h1v1H19zM22 22h3v1H22zM27 22h1v1H27zM29 22h1v1H29zM31 22h1v1H31zM2 23h1v1H2zM4 23h1v1H4zM7 23h5v1H7zM13 23h3v1H13zM17 23h2v1H17zM20 23h5v1H20zM26 23h3v1H26zM31 23h1v1H31zM0 24h8v1H0zM11 24h3v1H11zM15 24h2v1H15zM19 24h4v1H19zM24 24h5v1H24zM30 24h2v1H30zM8 25h1v1H8zM10 25h1v1H10zM12 25h3v1H12zM16 25h4v1H16zM22 25h1v1H22zM24 25h1v1H24zM28 25h1v1H28zM32,25 h1v1H32zM0 26h7v1H0zM8 26h1v1H8zM12 26h1v1H12zM15 26h1v1H15zM18 26h3v1H18zM22 26h1v1H22zM24 26h1v1H24zM26 26h1v1H26zM28 26h2v1H28zM31 26h1v1H31zM0 27h1v1H0zM6 27h1v1H6zM8 27h1v1H8zM10 27h3v1H10zM14 27h4v1H14zM19 27h1v1H19zM21 27h2v1H21zM24 27h1v1H24zM28 27h1v1H28zM32,27 h1v1H32zM0 28h1v1H0zM2 28h3v1H2zM6 28h1v1H6zM8 28h2v1H8zM12 28h4v1H12zM20 28h1v1H20zM24 28h5v1H24zM32,28 h1v1H32zM0 29h1v1H0zM2 29h3v1H2zM6 29h1v1H6zM10 29h1v1H10zM12 29h1v1H12zM16 29h1v1H16zM20 29h2v1H20zM26 29h1v1H26zM30 29h2v1H30zM0 30h1v1H0zM2 30h3v1H2zM6 30h1v1H6zM10 30h3v1H10zM14 30h3v1H14zM19 30h2v1H19zM22 30h2v1H22zM26 30h1v1H26zM28 30h1v1H28zM0 31h1v1H0zM6 31h1v1H6zM9 31h1v1H9zM14 31h2v1H14zM17 31h1v1H17zM19 31h1v1H19zM24 31h2v1H24zM27 31h1v1H27zM29 31h1v1H29zM0 32h7v1H0zM9 32h2v1H9zM13 32h1v1H13zM15 32h7v1H15zM24 32h1v1H24zM27 32h1v1H27zM29 32h1v1H29zM32,32 h1v1H32z" shape-rendering="crispEdges"></path>
</svg>
